<svg xmlns="http://www.w3.org/2000/svg" xmlns:xlink="http://www.w3.org/1999/xlink" version="1.1" width="256"
    height="256" viewBox="0 0 256 256" xml:space="preserve">
    <g style="stroke: none; stroke-width: 0; stroke-dasharray: none; stroke-linecap: butt; stroke-linejoin: miter; stroke-miterlimit: 10; fill: none; fill-rule: nonzero; opacity: 1;"
        transform="translate(1.4065934065934016 1.4065934065934016) scale(2.81 2.81)">
        <path
            d="M 76.887 60.372 h -2.579 c -0.828 0 -1.5 -0.672 -1.5 -1.5 s 0.672 -1.5 1.5 -1.5 h 2.579 C 82.463 57.372 87 52.836 87 47.26 c 0 -5.336 -4.179 -9.764 -9.514 -10.081 l -1.581 -0.094 l 0.18 -1.573 c 0.1 -0.871 0.147 -1.651 0.147 -2.385 c 0 -11.438 -9.305 -20.742 -20.742 -20.742 c -7.165 0 -13.729 3.641 -17.559 9.74 l -0.745 1.186 l -1.234 -0.662 c -2.296 -1.231 -4.89 -1.882 -7.503 -1.882 c -8.491 0 -15.457 6.65 -15.858 15.14 l -0.057 1.197 l -1.18 0.209 C 6.514 38.172 3 42.356 3 47.26 c 0 5.576 4.537 10.112 10.113 10.112 h 3.069 c 0.829 0 1.5 0.672 1.5 1.5 s -0.671 1.5 -1.5 1.5 h -3.069 C 5.883 60.372 0 54.49 0 47.26 c 0 -5.966 4.007 -11.11 9.683 -12.645 c 1.025 -9.536 9.057 -16.849 18.766 -16.849 c 2.648 0 5.282 0.563 7.693 1.637 C 40.601 13.104 47.737 9.384 55.49 9.384 c 13.092 0 23.742 10.651 23.742 23.742 c 0 0.401 -0.013 0.813 -0.037 1.238 C 85.365 35.464 90 40.858 90 47.26 C 90 54.49 84.117 60.372 76.887 60.372 z"
            style="stroke: none; stroke-width: 1; stroke-dasharray: none; stroke-linecap: butt; stroke-linejoin: miter; stroke-miterlimit: 10; fill: rgb(37,49,74); fill-rule: nonzero; opacity: 1;"
            transform=" matrix(1 0 0 1 0 0) " stroke-linecap="round" />
        <path
            d="M 48.336 80.616 h -6.672 c -1.268 0 -2.299 -1.031 -2.299 -2.299 v -0.994 c 0 -0.218 -0.128 -0.413 -0.311 -0.477 c -0.695 -0.24 -1.382 -0.525 -2.04 -0.849 c -0.171 -0.083 -0.393 -0.035 -0.542 0.114 l -0.71 0.711 c -0.898 0.897 -2.354 0.897 -3.251 0.002 l -4.718 -4.72 c -0.434 -0.434 -0.673 -1.011 -0.673 -1.625 s 0.239 -1.191 0.674 -1.626 l 0.71 -0.711 c 0.15 -0.15 0.196 -0.373 0.113 -0.542 c -0.325 -0.666 -0.609 -1.353 -0.847 -2.041 c -0.063 -0.182 -0.259 -0.31 -0.477 -0.31 h -0.994 c -1.268 0 -2.299 -1.031 -2.299 -2.299 v -6.673 c 0 -1.268 1.031 -2.299 2.299 -2.299 h 0.994 c 0.218 0 0.414 -0.128 0.477 -0.311 c 0.239 -0.692 0.524 -1.378 0.847 -2.038 c 0.083 -0.171 0.037 -0.394 -0.112 -0.542 l -0.713 -0.715 c -0.433 -0.433 -0.672 -1.01 -0.672 -1.624 s 0.239 -1.191 0.674 -1.626 l 4.717 -4.717 c 0.868 -0.868 2.383 -0.868 3.251 0 l 0.712 0.713 c 0.15 0.149 0.374 0.195 0.542 0.112 c 0.662 -0.323 1.348 -0.608 2.04 -0.848 c 0.183 -0.063 0.311 -0.259 0.311 -0.477 v -0.994 c 0 -1.268 1.031 -2.299 2.299 -2.299 h 6.672 c 1.268 0 2.299 1.031 2.299 2.299 v 0.994 c 0 0.218 0.128 0.414 0.311 0.477 c 0.689 0.238 1.376 0.523 2.039 0.847 c 0.172 0.083 0.394 0.037 0.544 -0.113 l 0.711 -0.711 c 0.896 -0.896 2.354 -0.897 3.25 -0.001 l 4.719 4.719 c 0.434 0.433 0.674 1.01 0.674 1.625 s -0.24 1.192 -0.676 1.627 l -0.709 0.71 c -0.15 0.15 -0.196 0.373 -0.113 0.543 c 0.32 0.656 0.605 1.341 0.847 2.037 c 0.063 0.186 0.26 0.313 0.478 0.313 h 0.993 c 1.268 0 2.299 1.031 2.299 2.299 v 6.673 c 0 1.268 -1.031 2.299 -2.299 2.299 h -0.993 c -0.218 0 -0.414 0.127 -0.477 0.309 c -0.24 0.695 -0.525 1.381 -0.848 2.041 c -0.083 0.171 -0.037 0.393 0.111 0.541 l 0.714 0.715 c 0.433 0.432 0.673 1.009 0.673 1.624 s -0.24 1.192 -0.676 1.627 l -4.716 4.717 c -0.896 0.894 -2.354 0.895 -3.249 0.002 l -0.715 -0.716 c -0.147 -0.147 -0.37 -0.192 -0.542 -0.111 c -0.659 0.323 -1.346 0.608 -2.04 0.848 c -0.182 0.063 -0.31 0.259 -0.31 0.477 v 0.994 C 50.635 79.585 49.604 80.616 48.336 80.616 z M 42.365 77.616 h 5.27 v -0.293 c 0 -1.499 0.937 -2.83 2.33 -3.313 c 0.579 -0.199 1.151 -0.438 1.702 -0.707 c 1.32 -0.646 2.923 -0.372 3.98 0.686 l 0.218 0.218 l 3.726 -3.727 l -0.217 -0.218 c -1.058 -1.056 -1.333 -2.655 -0.685 -3.979 c 0.268 -0.55 0.506 -1.124 0.707 -1.703 c 0.479 -1.392 1.811 -2.329 3.312 -2.329 H 63 V 56.98 h -0.292 c -1.501 0 -2.833 -0.938 -3.313 -2.332 c -0.201 -0.579 -0.439 -1.152 -0.707 -1.7 c -0.647 -1.324 -0.371 -2.925 0.688 -3.981 l 0.215 -0.216 l -3.726 -3.726 l -0.217 0.216 c -1.059 1.059 -2.66 1.334 -3.981 0.687 c -0.554 -0.271 -1.126 -0.509 -1.701 -0.707 c -1.395 -0.482 -2.331 -1.813 -2.331 -3.313 v -0.292 h -5.27 v 0.292 c 0 1.499 -0.937 2.83 -2.331 3.312 c -0.578 0.2 -1.15 0.438 -1.702 0.708 c -1.324 0.647 -2.923 0.372 -3.981 -0.686 l -0.217 -0.217 l -3.726 3.726 l 0.217 0.218 c 1.057 1.056 1.333 2.655 0.686 3.979 c -0.27 0.552 -0.507 1.124 -0.707 1.702 c -0.482 1.394 -1.813 2.33 -3.313 2.33 H 27 v 5.271 h 0.292 c 1.5 0 2.831 0.937 3.313 2.33 c 0.198 0.575 0.436 1.148 0.707 1.703 c 0.646 1.323 0.371 2.923 -0.688 3.98 l -0.215 0.216 l 3.726 3.727 l 0.216 -0.216 c 1.059 -1.058 2.659 -1.335 3.981 -0.688 c 0.55 0.27 1.122 0.507 1.702 0.707 c 1.395 0.482 2.331 1.813 2.331 3.313 V 77.616 z M 60.087 70.977 c 0 0 0.001 0.001 0.002 0.002 L 60.087 70.977 z M 60.087 69.984 c -0.001 0.001 -0.001 0.001 -0.002 0.002 L 60.087 69.984 z M 60.087 49.247 c 0.001 0.001 0.001 0.001 0.002 0.002 L 60.087 49.247 z M 60.086 48.256 c -0.001 0 -0.001 0.001 -0.002 0.002 L 60.086 48.256 z"
            style="stroke: none; stroke-width: 1; stroke-dasharray: none; stroke-linecap: butt; stroke-linejoin: miter; stroke-miterlimit: 10; fill: rgb(65,98,163); fill-rule: nonzero; opacity: 1;"
            transform=" matrix(1 0 0 1 0 0) " stroke-linecap="round" />
        <path
            d="M 45.01 69.115 c -2.52 0 -4.938 -0.992 -6.729 -2.782 c -1.968 -1.969 -2.971 -4.697 -2.751 -7.484 c 0.362 -4.599 4.104 -8.34 8.702 -8.702 c 2.787 -0.222 5.516 0.783 7.485 2.752 s 2.972 4.697 2.752 7.484 c -0.362 4.599 -4.104 8.34 -8.703 8.702 l 0 0 C 45.515 69.105 45.262 69.115 45.01 69.115 z M 44.988 53.116 c -0.173 0 -0.346 0.007 -0.52 0.021 c -3.143 0.248 -5.699 2.805 -5.947 5.948 c -0.151 1.911 0.535 3.779 1.882 5.127 c 1.347 1.348 3.209 2.038 5.128 1.883 l 0 0 c 3.143 -0.248 5.7 -2.805 5.948 -5.948 c 0.15 -1.911 -0.536 -3.779 -1.883 -5.126 C 48.372 53.795 46.716 53.116 44.988 53.116 z"
            style="stroke: none; stroke-width: 1; stroke-dasharray: none; stroke-linecap: butt; stroke-linejoin: miter; stroke-miterlimit: 10; fill: rgb(65,98,163); fill-rule: nonzero; opacity: 1;"
            transform=" matrix(1 0 0 1 0 0) " stroke-linecap="round" />
        <path
            d="M 67.472 34.742 c -0.828 0 -1.5 -0.671 -1.5 -1.5 c 0 -5.78 -4.702 -10.482 -10.481 -10.482 c -0.828 0 -1.5 -0.671 -1.5 -1.5 s 0.672 -1.5 1.5 -1.5 c 7.434 0 13.481 6.048 13.481 13.482 C 68.972 34.071 68.3 34.742 67.472 34.742 z"
            style="stroke: none; stroke-width: 1; stroke-dasharray: none; stroke-linecap: butt; stroke-linejoin: miter; stroke-miterlimit: 10; fill: rgb(37,50,74); fill-rule: nonzero; opacity: 1;"
            transform=" matrix(1 0 0 1 0 0) " stroke-linecap="round" />
        <path
            d="M 21.859 37.451 c -0.024 0 -0.048 0 -0.072 -0.001 c -0.828 -0.04 -1.467 -0.742 -1.428 -1.569 c 0.205 -4.33 3.758 -7.721 8.089 -7.721 c 0.829 0 1.5 0.671 1.5 1.5 s -0.671 1.5 -1.5 1.5 c -2.727 0 -4.963 2.136 -5.092 4.862 C 23.319 36.825 22.655 37.451 21.859 37.451 z"
            style="stroke: none; stroke-width: 1; stroke-dasharray: none; stroke-linecap: butt; stroke-linejoin: miter; stroke-miterlimit: 10; fill: rgb(37,50,74); fill-rule: nonzero; opacity: 1;"
            transform=" matrix(1 0 0 1 0 0) " stroke-linecap="round" />
    </g>
</svg>